<svg width="338" height="194" viewBox="0 0 338 194" fill="none" xmlns="http://www.w3.org/2000/svg">
<path d="M197.047 53.1875C196.891 53.7188 196.594 54.125 196.156 54.4062C195.719 54.6562 195.234 54.7812 194.703 54.7812C193.984 54.7812 193.391 54.5156 192.922 53.9844C192.453 53.4531 192.219 52.9219 192.219 52.3906C192.219 52.1406 192.281 51.8906 192.406 51.6406L195.406 42.875C194.625 41.625 193.672 40.4375 192.547 39.3125C191.453 38.1562 190.25 37.1406 188.938 36.2656C187.625 35.3906 186.234 34.7031 184.766 34.2031C183.297 33.6719 181.812 33.4062 180.312 33.4062C177.469 33.4062 174.922 33.8438 172.672 34.7188C170.453 35.5938 168.5 36.7812 166.812 38.2812C165.156 39.7812 163.734 41.5469 162.547 43.5781C161.359 45.5781 160.391 47.7188 159.641 50C158.922 52.2812 158.391 54.6406 158.047 57.0781C157.734 59.4844 157.578 61.8594 157.578 64.2031C157.578 66.2344 157.688 68.4062 157.906 70.7188C158.125 73 158.5 75.2969 159.031 77.6094C159.562 79.8906 160.266 82.0938 161.141 84.2188C162.016 86.3125 163.094 88.1719 164.375 89.7969C165.688 91.4219 167.219 92.7188 168.969 93.6875C170.719 94.6562 172.75 95.1406 175.062 95.1406C177.781 95.1406 180.359 94.75 182.797 93.9688C185.266 93.1875 187.5 92.0781 189.5 90.6406C191.531 89.1719 193.297 87.4219 194.797 85.3906C196.328 83.3594 197.516 81.0938 198.359 78.5938C198.516 78.0312 198.812 77.5781 199.25 77.2344C199.688 76.8594 200.188 76.6719 200.75 76.6719C201.438 76.6719 202.016 76.9375 202.484 77.4688C202.953 78 203.188 78.5781 203.188 79.2031V79.7656C203.156 79.8281 203.047 80.1406 202.859 80.7031C202.703 81.2656 202.422 82 202.016 82.9062C201.641 83.7812 201.125 84.7969 200.469 85.9531C199.844 87.0781 199.047 88.25 198.078 89.4688C196.641 91.25 195.031 92.7969 193.25 94.1094C191.469 95.4219 189.578 96.5156 187.578 97.3906C185.609 98.2656 183.562 98.9219 181.438 99.3594C179.312 99.7969 177.188 100.016 175.062 100.016C169.719 99.9219 164.922 99.0625 160.672 97.4375C156.453 95.7812 152.859 93.4844 149.891 90.5469C146.953 87.5781 144.688 84.0156 143.094 79.8594C141.531 75.7031 140.75 71.0625 140.75 65.9375C140.75 61.1875 141.25 56.9531 142.25 53.2344C143.25 49.5156 144.609 46.2656 146.328 43.4844C148.078 40.6719 150.125 38.2969 152.469 36.3594C154.812 34.3906 157.297 32.7969 159.922 31.5781C162.578 30.3594 165.328 29.4844 168.172 28.9531C171.016 28.3906 173.812 28.1094 176.562 28.1094C179.312 28.1094 181.781 28.4062 183.969 29C186.156 29.5625 188.109 30.2969 189.828 31.2031C191.547 32.1094 193.016 33.1094 194.234 34.2031C195.484 35.2656 196.516 36.2812 197.328 37.25L199.906 29.8438C200.094 29.3125 200.406 28.8906 200.844 28.5781C201.281 28.2656 201.734 28.1094 202.203 28.1094C202.891 28.1094 203.469 28.375 203.938 28.9062C204.438 29.4063 204.688 29.9688 204.688 30.5938C204.688 30.875 204.625 31.1406 204.5 31.3906L197.047 53.1875Z" fill="#E72A44"/>
<path d="M197.047 53.1875L196.101 52.864L196.094 52.8845L196.088 52.9053L197.047 53.1875ZM196.156 54.4062L196.652 55.2745L196.675 55.2615L196.697 55.2474L196.156 54.4062ZM192.406 51.6406L193.301 52.0878L193.331 52.0279L193.352 51.9644L192.406 51.6406ZM195.406 42.875L196.352 43.1988L196.506 42.7486L196.254 42.345L195.406 42.875ZM192.547 39.3125L191.82 39.9997L191.83 40.0098L191.84 40.0196L192.547 39.3125ZM184.766 34.2031L184.425 35.1435L184.434 35.1467L184.443 35.1498L184.766 34.2031ZM172.672 34.7188L172.309 33.7867L172.305 33.7885L172.672 34.7188ZM166.812 38.2812L166.148 37.5338L166.141 37.54L166.812 38.2812ZM162.547 43.5781L163.407 44.0887L163.41 44.0828L162.547 43.5781ZM159.641 50L158.691 49.6877L158.687 49.6995L159.641 50ZM158.047 57.0781L157.057 56.9385L157.055 56.9493L158.047 57.0781ZM157.906 70.7188L156.911 70.8129L156.911 70.8142L157.906 70.7188ZM159.031 77.6094L158.057 77.8333L158.057 77.8362L159.031 77.6094ZM161.141 84.2188L160.216 84.5995L160.218 84.6043L161.141 84.2188ZM164.375 89.7969L163.59 90.4161L163.597 90.4252L164.375 89.7969ZM182.797 93.9688L182.495 93.0153L182.492 93.0165L182.797 93.9688ZM189.5 90.6406L190.084 91.4526L190.086 91.451L189.5 90.6406ZM194.797 85.3906L193.998 84.7886L193.992 84.7966L194.797 85.3906ZM198.359 78.5938L199.307 78.9135L199.316 78.8877L199.323 78.8614L198.359 78.5938ZM199.25 77.2344L199.868 78.0207L199.885 78.0075L199.901 77.9936L199.25 77.2344ZM203.188 79.7656L204.082 80.2128L204.188 80.0017V79.7656H203.188ZM202.859 80.7031L201.911 80.3869L201.903 80.411L201.896 80.4355L202.859 80.7031ZM202.016 82.9062L201.103 82.4972L201.1 82.5047L201.096 82.5123L202.016 82.9062ZM200.469 85.9531L199.599 85.4595L199.595 85.4675L200.469 85.9531ZM198.078 89.4688L198.856 90.0968L198.861 90.091L198.078 89.4688ZM187.578 97.3906L187.177 96.4745L187.172 96.4768L187.578 97.3906ZM175.062 100.016L175.045 101.015L175.054 101.016H175.062V100.016ZM160.672 97.4375L160.306 98.3684L160.315 98.3716L160.672 97.4375ZM149.891 90.5469L149.18 91.2503L149.187 91.2577L149.891 90.5469ZM143.094 79.8594L142.158 80.2113L142.16 80.2174L143.094 79.8594ZM146.328 43.4844L145.479 42.9561L145.477 42.9587L146.328 43.4844ZM152.469 36.3594L153.106 37.1301L153.112 37.1251L152.469 36.3594ZM159.922 31.5781L159.505 30.6692L159.501 30.6711L159.922 31.5781ZM168.172 28.9531L168.356 29.9362L168.366 29.9341L168.172 28.9531ZM183.969 29L183.707 29.9652L183.72 29.9685L183.969 29ZM194.234 34.2031L193.566 34.9474L193.576 34.9564L193.587 34.9651L194.234 34.2031ZM197.328 37.25L196.562 37.8926L197.694 39.2419L198.273 37.5788L197.328 37.25ZM199.906 29.8438L198.963 29.5109L198.962 29.515L199.906 29.8438ZM203.938 28.9062L203.188 29.5679L203.208 29.5913L203.23 29.6134L203.938 28.9062ZM204.5 31.3906L203.606 30.9434L203.576 31.0035L203.554 31.0671L204.5 31.3906ZM196.088 52.9053C195.994 53.2222 195.837 53.4226 195.615 53.5651L196.697 55.2474C197.35 54.8274 197.787 54.2153 198.006 53.4697L196.088 52.9053ZM195.66 53.538C195.382 53.6969 195.07 53.7812 194.703 53.7812V55.7812C195.399 55.7812 196.055 55.6156 196.652 55.2745L195.66 53.538ZM194.703 53.7812C194.267 53.7812 193.948 53.6353 193.672 53.3228L192.172 54.646C192.834 55.3959 193.702 55.7812 194.703 55.7812V53.7812ZM193.672 53.3228C193.31 52.9124 193.219 52.6068 193.219 52.3906H191.219C191.219 53.237 191.597 53.9939 192.172 54.646L193.672 53.3228ZM193.219 52.3906C193.219 52.3134 193.237 52.2156 193.301 52.0878L191.512 51.1934C191.326 51.5657 191.219 51.9679 191.219 52.3906H193.219ZM193.352 51.9644L196.352 43.1988L194.46 42.5512L191.46 51.3168L193.352 51.9644ZM196.254 42.345C195.43 41.026 194.428 39.7797 193.254 38.6054L191.84 40.0196C192.915 41.0953 193.82 42.224 194.558 43.405L196.254 42.345ZM193.273 38.6253C192.128 37.415 190.868 36.3506 189.492 35.4336L188.383 37.0977C189.632 37.9306 190.778 38.8975 191.82 39.9997L193.273 38.6253ZM189.492 35.4336C188.109 34.5113 186.64 33.7849 185.088 33.2565L184.443 35.1498C185.829 35.6214 187.141 36.27 188.383 37.0977L189.492 35.4336ZM185.106 33.2627C183.533 32.6937 181.933 32.4062 180.312 32.4062V34.4062C181.692 34.4062 183.061 34.6501 184.425 35.1435L185.106 33.2627ZM180.312 32.4062C177.366 32.4062 174.694 32.8596 172.309 33.7867L173.034 35.6508C175.15 34.8279 177.571 34.4062 180.312 34.4062V32.4062ZM172.305 33.7885C169.983 34.7041 167.928 35.9516 166.148 37.5338L167.477 39.0287C169.072 37.6109 170.923 36.4834 173.039 35.649L172.305 33.7885ZM166.141 37.54C164.405 39.1122 162.92 40.9587 161.684 43.0734L163.41 44.0828C164.549 42.1351 165.907 40.4503 167.484 39.0225L166.141 37.54ZM161.687 43.0676C160.461 45.1322 159.463 47.3395 158.691 49.6877L160.591 50.3123C161.319 48.098 162.258 46.0241 163.407 44.0887L161.687 43.0676ZM158.687 49.6995C157.951 52.0348 157.408 54.448 157.057 56.9385L159.037 57.2178C159.373 54.8332 159.893 52.5277 160.594 50.3005L158.687 49.6995ZM157.055 56.9493C156.737 59.3968 156.578 61.8148 156.578 64.2031H158.578C158.578 61.9039 158.731 59.572 159.039 57.2069L157.055 56.9493ZM156.578 64.2031C156.578 66.2699 156.689 68.4735 156.911 70.8129L158.902 70.6246C158.686 68.339 158.578 66.1989 158.578 64.2031H156.578ZM156.911 70.8142C157.134 73.1402 157.516 75.4799 158.057 77.8333L160.006 77.3855C159.484 75.1138 159.116 72.8598 158.902 70.6233L156.911 70.8142ZM158.057 77.8362C158.601 80.169 159.32 82.4236 160.216 84.5995L162.065 83.838C161.211 81.7639 160.524 79.6123 160.005 77.3826L158.057 77.8362ZM160.218 84.6043C161.125 86.7738 162.247 88.7133 163.59 90.416L165.16 89.1777C163.94 87.6305 162.907 85.8512 162.063 83.8332L160.218 84.6043ZM163.597 90.4252C164.987 92.146 166.617 93.5284 168.484 94.5624L169.453 92.8126C167.821 91.9091 166.388 90.6977 165.153 89.1685L163.597 90.4252ZM168.484 94.5624C170.404 95.6252 172.607 96.1406 175.062 96.1406V94.1406C172.893 94.1406 171.033 93.6873 169.453 92.8126L168.484 94.5624ZM175.062 96.1406C177.878 96.1406 180.56 95.7358 183.102 94.921L182.492 93.0165C180.159 93.7642 177.684 94.1406 175.062 94.1406V96.1406ZM183.099 94.9222C185.663 94.1106 187.993 92.955 190.084 91.4526L188.916 89.8286C187.007 91.2013 184.868 92.2644 182.495 93.0153L183.099 94.9222ZM190.086 91.451C192.201 89.9214 194.041 88.0982 195.601 85.9847L193.992 84.7966C192.553 86.7455 190.861 88.4224 188.914 89.8303L190.086 91.451ZM195.595 85.9926C197.193 83.8727 198.43 81.5111 199.307 78.9135L197.412 78.274C196.601 80.6764 195.463 82.8461 193.998 84.7887L195.595 85.9926ZM199.323 78.8614C199.425 78.4934 199.606 78.226 199.868 78.0207L198.632 76.4481C198.019 76.9302 197.606 77.5691 197.396 78.3261L199.323 78.8614ZM199.901 77.9936C200.162 77.7698 200.433 77.6719 200.75 77.6719V75.6719C199.942 75.6719 199.213 75.9489 198.599 76.4751L199.901 77.9936ZM200.75 77.6719C201.141 77.6719 201.449 77.8068 201.735 78.1304L203.234 76.8071C202.582 76.0682 201.734 75.6719 200.75 75.6719V77.6719ZM201.735 78.1304C202.065 78.505 202.188 78.8545 202.188 79.2031H204.188C204.188 78.3018 203.841 77.495 203.234 76.8071L201.735 78.1304ZM202.188 79.2031V79.7656H204.188V79.2031H202.188ZM202.293 79.3184C202.242 79.4209 202.183 79.5895 202.138 79.7165C202.081 79.8798 202.005 80.104 201.911 80.3869L203.808 81.0194C203.901 80.7398 203.974 80.5265 204.026 80.3772C204.052 80.3022 204.072 80.2475 204.086 80.2105C204.106 80.1571 204.101 80.1742 204.082 80.2128L202.293 79.3184ZM201.896 80.4355C201.759 80.9277 201.501 81.6098 201.103 82.4972L202.928 83.3153C203.343 82.3902 203.647 81.6036 203.823 80.9708L201.896 80.4355ZM201.096 82.5123C200.741 83.3428 200.244 84.324 199.599 85.4595L201.338 86.4467C202.006 85.2698 202.541 84.2197 202.935 83.3002L201.096 82.5123ZM199.595 85.4675C199.001 86.5358 198.237 87.6621 197.295 88.8465L198.861 90.091C199.857 88.8379 200.686 87.6204 201.343 86.4388L199.595 85.4675ZM197.3 88.8407C195.914 90.5576 194.367 92.0444 192.657 93.3043L193.843 94.9144C195.696 93.5494 197.367 91.9424 198.856 90.0968L197.3 88.8407ZM192.657 93.3043C190.935 94.5734 189.108 95.6296 187.177 96.4745L187.979 98.3068C190.048 97.4016 192.003 96.2704 193.843 94.9144L192.657 93.3043ZM187.172 96.4768C185.269 97.3224 183.291 97.9568 181.236 98.3799L181.639 100.339C183.834 99.887 185.949 99.2088 187.984 98.3044L187.172 96.4768ZM181.236 98.3799C179.176 98.804 177.118 99.0156 175.062 99.0156V101.016C177.257 101.016 179.449 100.79 181.639 100.339L181.236 98.3799ZM175.08 99.0158C169.833 98.9237 165.153 98.0804 161.029 96.5034L160.315 98.3716C164.69 100.045 169.605 100.92 175.045 101.015L175.08 99.0158ZM161.037 96.5067C156.934 94.8958 153.458 92.6701 150.594 89.836L149.187 91.2577C152.261 94.2986 155.972 96.6667 160.306 98.3683L161.037 96.5067ZM150.601 89.8435C147.768 86.9796 145.575 83.5369 144.027 79.5013L142.16 80.2174C143.8 84.4943 146.139 88.1767 149.18 91.2502L150.601 89.8435ZM144.03 79.5075C142.516 75.4796 141.75 70.9606 141.75 65.9375H139.75C139.75 71.1644 140.547 75.9266 142.158 80.2113L144.03 79.5075ZM141.75 65.9375C141.75 61.2556 142.243 57.1111 143.216 53.4941L141.284 52.9747C140.257 56.7951 139.75 61.1194 139.75 65.9375H141.75ZM143.216 53.4941C144.195 49.8529 145.519 46.6956 147.179 44.0101L145.477 42.9587C143.7 45.8357 142.305 49.1784 141.284 52.9747L143.216 53.4941ZM147.177 44.0127C148.875 41.2837 150.853 38.9929 153.106 37.1301L151.832 35.5886C149.397 37.6008 147.281 40.06 145.479 42.9561L147.177 44.0127ZM153.112 37.1251C155.392 35.2097 157.802 33.6647 160.343 32.4851L159.501 30.6711C156.791 31.9291 154.233 33.5715 151.826 35.5937L153.112 37.1251ZM160.339 32.487C162.921 31.3021 165.593 30.4522 168.356 29.9361L167.988 27.9701C165.063 28.5166 162.235 29.4167 159.505 30.6692L160.339 32.487ZM168.366 29.9341C171.149 29.3836 173.881 29.1094 176.562 29.1094V27.1094C173.744 27.1094 170.882 27.3977 167.978 27.9721L168.366 29.9341ZM176.562 29.1094C179.242 29.1094 181.621 29.3988 183.707 29.9651L184.231 28.0349C181.942 27.4137 179.383 27.1094 176.562 27.1094V29.1094ZM183.72 29.9685C185.844 30.5146 187.722 31.2231 189.362 32.0877L190.295 30.3186C188.497 29.3706 186.469 28.6104 184.218 28.0315L183.72 29.9685ZM189.362 32.0877C191.021 32.9625 192.419 33.9176 193.566 34.9474L194.902 33.4589C193.612 32.3012 192.073 31.2562 190.295 30.3186L189.362 32.0877ZM193.587 34.9651C194.806 36.0013 195.794 36.9774 196.562 37.8926L198.094 36.6074C197.237 35.5851 196.163 34.53 194.882 33.4412L193.587 34.9651ZM198.273 37.5788L200.851 30.1725L198.962 29.515L196.384 36.9212L198.273 37.5788ZM200.849 30.1766C200.972 29.8291 201.163 29.5791 201.425 29.3919L200.263 27.7644C199.65 28.2022 199.216 28.7959 198.963 29.5109L200.849 30.1766ZM201.425 29.3919C201.719 29.182 201.972 29.1094 202.203 29.1094V27.1094C201.496 27.1094 200.844 27.3492 200.263 27.7644L201.425 29.3919ZM202.203 29.1094C202.594 29.1094 202.902 29.2443 203.188 29.5679L204.687 28.2446C204.035 27.5057 203.187 27.1094 202.203 27.1094V29.1094ZM203.23 29.6134C203.57 29.9527 203.688 30.2697 203.688 30.5938H205.688C205.688 29.6678 205.305 28.8598 204.645 28.1991L203.23 29.6134ZM203.688 30.5938C203.688 30.7208 203.661 30.8332 203.606 30.9434L205.394 31.8378C205.589 31.4481 205.688 31.0292 205.688 30.5938H203.688ZM203.554 31.0671L196.101 52.864L197.993 53.511L205.446 31.7142L203.554 31.0671Z" fill="black"/>
<path d="M51.1533 144.849C50.7578 148.232 49.5054 150.847 47.396 152.693C45.3013 154.524 42.5107 155.439 39.0244 155.439C35.2451 155.439 32.2129 154.084 29.9277 151.375C27.6572 148.665 26.522 145.039 26.522 140.498V137.422C26.522 134.448 27.0493 131.833 28.104 129.578C29.1733 127.322 30.6821 125.593 32.6304 124.392C34.5786 123.176 36.8345 122.568 39.3979 122.568C42.7964 122.568 45.521 123.521 47.5718 125.425C49.6226 127.314 50.8164 129.937 51.1533 133.291H46.9126C46.5464 130.742 45.748 128.896 44.5176 127.754C43.3018 126.611 41.5952 126.04 39.3979 126.04C36.7026 126.04 34.5859 127.036 33.0479 129.028C31.5244 131.021 30.7627 133.855 30.7627 137.532V140.63C30.7627 144.102 31.4878 146.863 32.938 148.914C34.3882 150.964 36.417 151.99 39.0244 151.99C41.3682 151.99 43.1626 151.462 44.4077 150.408C45.6675 149.338 46.5024 147.485 46.9126 144.849H51.1533ZM91.5415 140.037C91.5415 143.171 91.0142 145.911 89.9595 148.254C88.9048 150.583 87.4106 152.363 85.4771 153.594C83.5435 154.824 81.2876 155.439 78.7095 155.439C76.1899 155.439 73.9561 154.824 72.0078 153.594C70.0596 152.349 68.5435 150.583 67.4595 148.298C66.3901 145.999 65.8408 143.34 65.8115 140.322V138.015C65.8115 134.939 66.3462 132.222 67.4155 129.863C68.4849 127.505 69.9937 125.703 71.9419 124.458C73.9048 123.198 76.146 122.568 78.6655 122.568C81.229 122.568 83.4849 123.191 85.4331 124.436C87.396 125.667 88.9048 127.461 89.9595 129.819C91.0142 132.163 91.5415 134.895 91.5415 138.015V140.037ZM87.3447 137.971C87.3447 134.177 86.583 131.27 85.0596 129.248C83.5361 127.212 81.4048 126.194 78.6655 126.194C75.9995 126.194 73.8975 127.212 72.3594 129.248C70.8359 131.27 70.0522 134.082 70.0083 137.686V140.037C70.0083 143.713 70.7773 146.606 72.3154 148.716C73.8682 150.811 75.9995 151.858 78.7095 151.858C81.4341 151.858 83.5435 150.869 85.0376 148.892C86.5317 146.899 87.3008 144.05 87.3447 140.344V137.971ZM113.319 123.008L123.778 149.111L134.237 123.008H139.708V155H135.489V142.542L135.885 129.094L125.382 155H122.152L111.671 129.16L112.088 142.542V155H107.87V123.008H113.319ZM162.606 123.008L173.065 149.111L183.524 123.008H188.995V155H184.776V142.542L185.172 129.094L174.669 155H171.439L160.958 129.16L161.375 142.542V155H157.157V123.008H162.606ZM224.505 146.65H211.102L208.092 155H203.741L215.958 123.008H219.649L231.888 155H227.56L224.505 146.65ZM212.376 143.179H223.253L217.804 128.215L212.376 143.179ZM270.782 155H266.542L250.436 130.347V155H246.195V123.008H250.436L266.585 147.771V123.008H270.782V155ZM288.275 155V123.008H297.306C300.089 123.008 302.55 123.623 304.688 124.854C306.827 126.084 308.475 127.834 309.632 130.105C310.804 132.375 311.397 134.983 311.412 137.927V139.971C311.412 142.988 310.826 145.632 309.654 147.903C308.497 150.173 306.834 151.917 304.667 153.132C302.513 154.348 300.001 154.971 297.13 155H288.275ZM292.494 126.479V151.55H296.932C300.184 151.55 302.711 150.54 304.513 148.518C306.329 146.497 307.237 143.618 307.237 139.883V138.015C307.237 134.382 306.38 131.562 304.667 129.556C302.967 127.534 300.55 126.509 297.416 126.479H292.494Z" fill="#462C1B"/>
</svg>
